<?xml version="1.0" standalone="no"?>
<!DOCTYPE svg PUBLIC "-//W3C//DTD SVG 20010904//EN"
 "http://www.w3.org/TR/2001/REC-SVG-20010904/DTD/svg10.dtd">
<svg version="1.0" xmlns="http://www.w3.org/2000/svg"
 width="16.000000pt" height="16.000000pt" viewBox="0 0 16.000000 16.000000"
 preserveAspectRatio="xMidYMid meet">
<metadata>
Created by potrace 1.11, written by Peter Selinger 2001-2013
</metadata>
<g transform="translate(0.000000,16.000000) scale(0.006400,-0.006400)"
fill="#000000" stroke="none">
<path d="M1140 2497 c-3 -3 -30 -7 -60 -10 -380 -39 -762 -311 -942 -669 -102
-203 -138 -365 -133 -609 1 -81 5 -151 8 -155 3 -5 8 -25 11 -44 25 -150 92
-310 192 -460 178 -266 433 -441 759 -521 76 -19 118 -23 275 -23 167 0 195 2
290 26 375 94 670 332 836 673 54 112 85 208 110 340 13 68 12 341 -2 415 -71
379 -275 672 -603 869 -111 67 -284 132 -390 147 -19 2 -38 7 -42 10 -11 6
-303 17 -309 11z"/>
</g>
</svg>
